<svg xmlns="http://www.w3.org/2000/svg" viewBox="60 40 130 140">
  <g>
    <g transform="translate(23.709192,139.88423)" style="stroke:#000000;stroke-width:4;stroke-linecap:round;stroke-linejoin:round;stroke-miterlimit:4;stroke-opacity:1;stroke-dasharray:none">
      <path style="fill:#ffffff;fill-opacity:1;fill-rule:nonzero;stroke:#000000;stroke-width:4;stroke-linecap:round;stroke-linejoin:round;stroke-miterlimit:4;stroke-opacity:1;stroke-dasharray:none" d="m 141.25435,15.713415 c -3.4112,2.068785 -5.82326,2.938775 -9.8178,2.938775 -8.44323,0 -16.43544,-5.180318 -19.4565,-12.7388781 -2.9646,7.6732601 -9.50337,12.9527581 -18.028182,12.9527581 -11.15153,0 -20.95381,-9.2979205 -20.95381,-20.7476005 0,-11.4496995 9.80228,-20.7476195 20.95381,-20.7476195 8.442032,0 14.929132,5.33172 17.947972,12.8870595 2.97088,-7.6676795 11.01688,-13.1009395 19.53671,-13.1009395 11.15151,0 20.169,10.613059 19.59344,20.7476095 -1.88552,8.0305537 -5.07728,12.5747345 -9.77564,17.8088355 z"/>
    </g>
    <path style="fill:#000000;fill-opacity:1;fill-rule:nonzero;stroke:#000000;stroke-width:4.60229826;stroke-linecap:round;stroke-linejoin:round;stroke-miterlimit:4;stroke-opacity:1;stroke-dasharray:none;stroke-dashoffset:0" d="m 221.78571,216.46933 c 0,5.42422 -4.31725,9.82143 -9.64286,9.82143 -5.3256,0 -9.64285,-4.39721 -9.64285,-9.82143 0,-5.42423 4.31725,-9.82143 9.64285,-9.82143 5.32561,0 9.64286,4.3972 9.64286,9.82143 z" transform="matrix(0.855571,0,0,0.855571,-60.61176,-51.73938)"/>
    <path style="fill:#000000;fill-opacity:1;fill-rule:nonzero;stroke:#000000;stroke-width:4.60229826;stroke-linecap:round;stroke-linejoin:round;stroke-miterlimit:4;stroke-opacity:1;stroke-dasharray:none;stroke-dashoffset:0" d="m 221.78571,216.46933 c 0,5.42422 -4.31725,9.82143 -9.64286,9.82143 -5.3256,0 -9.64285,-4.39721 -9.64285,-9.82143 0,-5.42423 4.31725,-9.82143 9.64285,-9.82143 5.32561,0 9.64286,4.3972 9.64286,9.82143 z" transform="matrix(0.855571,0,0,0.855571,-23.33326,-50.66992)"/>
    <path style="fill:#ffad08;fill-opacity:1;fill-rule:nonzero;stroke:#000000;stroke-width:3.93759179;stroke-linecap:round;stroke-linejoin:round;stroke-miterlimit:4;stroke-opacity:1;stroke-dasharray:none;stroke-dashoffset:0" d="m 124.44762,57.204674 c -28.475479,0.80721 -51.361034,26.97641 -51.361034,59.087906 0,32.61969 23.623312,59.0879 52.724604,59.0879 15.76921,0 29.93305,-7.76669 39.5969,-20.0792 -3.13594,2.05668 -6.86054,3.23514 -10.85508,3.23514 -8.44323,0 -15.69453,-5.3285 -18.71559,-12.88706 -2.9646,7.67326 -10.24428,13.10094 -18.76909,13.10094 -11.15153,0 -20.212898,-9.29792 -20.212898,-20.7476 0,-11.4497 9.061368,-20.74762 20.212898,-20.74762 8.44203,0 15.67004,5.33172 18.68888,12.88706 2.97088,-7.66768 10.27597,-13.10094 18.7958,-13.10094 11.15151,0 20.18617,9.29793 20.18617,20.74761 0,0.14872 0.002,0.30663 0,0.45451 2.42589,-6.78676 3.79659,-14.19631 3.79659,-21.95074 0,-32.619686 -23.62332,-59.087906 -52.72458,-59.087906 -0.34104,0 -0.67649,-0.0072 -1.01599,0 -0.11186,0.0024 -0.23591,-0.0032 -0.34758,0 z"/>
  </g>
</svg>
